<svg id="Layer_1" data-name="Layer 1" xmlns="http://www.w3.org/2000/svg" viewBox="0 0 750.64 183.83"><defs><style>.cls-1{fill:#b3541e;}.cls-2{fill:#362222;}.cls-3{fill:#fff;}</style></defs><path class="cls-1" d="M198.78,56.38a6.29,6.29,0,0,1-1.27,3.55q-1.27,1.83-3,3.86a40.88,40.88,0,0,1-2.94-3.86,6.35,6.35,0,0,1-1.22-3.55,4.17,4.17,0,0,1,1.22-3,3.94,3.94,0,0,1,2.94-1.27,4.34,4.34,0,0,1,4.27,4.27Zm-7.62,18.18L198,70.8v55.36h-6.81Z"/><path class="cls-2" d="M216.6,42v84.21h-6.8V45.81Z"/><path class="cls-2" d="M234.78,42v84.21H228V45.81Z"/><path class="cls-2" d="M289.63,70.8v55.36l-6.8-2.54V109.3a24.41,24.41,0,0,1-2.75,7.92,20.83,20.83,0,0,1-4.57,5.59,18.66,18.66,0,0,1-5.74,3.35,18.16,18.16,0,0,1-12.95-.15A17,17,0,0,1,251,122.2a18.76,18.76,0,0,1-4.06-6.3,23.25,23.25,0,0,1-1.52-8.74V74.56l6.8-3.76v36.36a17.45,17.45,0,0,0,1.22,6.71,15.25,15.25,0,0,0,3.25,5,14.61,14.61,0,0,0,4.67,3.14,13.44,13.44,0,0,0,11.18-.2,14.72,14.72,0,0,0,5.13-4.11,21.84,21.84,0,0,0,3.7-7.11,33.43,33.43,0,0,0,1.43-10.41V74.56Z"/><path class="cls-2" d="M305.68,80a9.07,9.07,0,0,0,2.28,6.3,22.05,22.05,0,0,0,5.74,4.47,70.15,70.15,0,0,0,7.52,3.61,59.78,59.78,0,0,1,7.52,3.7,21.3,21.3,0,0,1,5.73,4.83,10.59,10.59,0,0,1,2.29,7,17,17,0,0,1-1.68,7.72,16.2,16.2,0,0,1-4.41,5.53,19.19,19.19,0,0,1-6.25,3.3,23.29,23.29,0,0,1-7.16,1.12,24,24,0,0,1-6.2-.81,23.15,23.15,0,0,1-5.74-2.39,18.3,18.3,0,0,1-4.72-4,17.45,17.45,0,0,1-3.15-5.54l2.85-1a18.46,18.46,0,0,0,3.09,5.58,19.54,19.54,0,0,0,9.55,6.51,18.77,18.77,0,0,0,5.44.81,16.24,16.24,0,0,0,5.28-.87,12.18,12.18,0,0,0,4.42-2.59,13.14,13.14,0,0,0,3-4.31,14.58,14.58,0,0,0,1.17-6,7.38,7.38,0,0,0-2.28-5.48,24.27,24.27,0,0,0-5.79-4.06q-3.51-1.83-7.52-3.51a55.13,55.13,0,0,1-7.52-3.81,22.26,22.26,0,0,1-5.79-5,10.87,10.87,0,0,1-2.28-7,12.35,12.35,0,0,1,1.32-5.79,13.12,13.12,0,0,1,3.5-4.27,15.34,15.34,0,0,1,5-2.59,19.47,19.47,0,0,1,5.74-.86,18.9,18.9,0,0,1,9.45,2.54,14.75,14.75,0,0,1,6.5,7.72l-3.05.91a15.27,15.27,0,0,0-6-7.87,14.83,14.83,0,0,0-7.93-2.49,11.29,11.29,0,0,0-6.95,2.24A7.49,7.49,0,0,0,305.68,80Z"/><path class="cls-2" d="M352.61,111.94a17.85,17.85,0,0,0,.76,5.18,15.17,15.17,0,0,0,2.18,4.52,10.28,10.28,0,0,0,8.64,4.32v.71a19.4,19.4,0,0,1-8.79-1.78,14.85,14.85,0,0,1-5.64-4.88,20.31,20.31,0,0,1-3-7.26,42.06,42.06,0,0,1-.92-9V72.32h-5.48v-.91h5.48V62.88L352.61,59V71.41h9.14v.91h-9.14Z"/><path class="cls-2" d="M377.29,85.73a24.64,24.64,0,0,1,2.64-5.84A20.21,20.21,0,0,1,384,75.07a19,19,0,0,1,5.28-3.2,15.25,15.25,0,0,1,6.25-1.07l-1.32,3a14.66,14.66,0,0,0-8.18,1.73,15.6,15.6,0,0,0-5.23,4.82,19.35,19.35,0,0,0-2.74,6.4,29.2,29.2,0,0,0-.81,6.55v32.81h-6.81V74.56l6.81-3.76Z"/><path class="cls-2" d="M436.3,91.42v34.84h-.4l-6.3-6.4v-7.52a20.49,20.49,0,0,1-3,6.51,19.64,19.64,0,0,1-4.42,4.57,18.73,18.73,0,0,1-5.28,2.74,18,18,0,0,1-5.63.91,17.17,17.17,0,0,1-5.85-1,14.78,14.78,0,0,1-4.92-3,14.53,14.53,0,0,1-3.45-4.77,15.4,15.4,0,0,1-1.33-6.6,14.18,14.18,0,0,1,2.65-8.74,18.94,18.94,0,0,1,7.21-5.74,40.19,40.19,0,0,1,10.71-3.2,82.3,82.3,0,0,1,13.26-1V86.44a14.78,14.78,0,0,0-1.17-6.14,12.39,12.39,0,0,0-7.62-6.91,16.85,16.85,0,0,0-5.33-.86,18.81,18.81,0,0,0-8.08,1.88,19.89,19.89,0,0,0-6.95,5.43l-1-.91a22.41,22.41,0,0,1,3.81-3.56A24.84,24.84,0,0,1,408,72.63a32.56,32.56,0,0,1,5.23-1.78,22.37,22.37,0,0,1,5.34-.66,19.2,19.2,0,0,1,6.65,1.17A15.53,15.53,0,0,1,430.87,75a17.52,17.52,0,0,1,4,6.55A29.08,29.08,0,0,1,436.3,91.42Zm-34,19.4a17.83,17.83,0,0,0,1,6.1,13.49,13.49,0,0,0,2.54,4.41,9.66,9.66,0,0,0,3.71,2.64,11.42,11.42,0,0,0,4.36.87,13.6,13.6,0,0,0,5.59-1.27,14.47,14.47,0,0,0,5.08-3.86,20.93,20.93,0,0,0,3.66-6.4,25.24,25.24,0,0,0,1.42-8.79V94.16a61.27,61.27,0,0,0-10.77.71,28,28,0,0,0-8.68,2.8,15.08,15.08,0,0,0-5.79,5.23A14.38,14.38,0,0,0,402.28,110.82Z"/><path class="cls-1" d="M470.63,55.26a35.72,35.72,0,0,1,15,3.15,32.15,32.15,0,0,1,10.71,8.07,33.82,33.82,0,0,1,6.45,11.43A41.1,41.1,0,0,1,505,91a40.57,40.57,0,0,1-2.13,13,33.19,33.19,0,0,1-6.45,11.33,31.61,31.61,0,0,1-10.77,8,34.15,34.15,0,0,1-15,2.9H447.68V55.26Zm0,70a23,23,0,0,0,11.89-3,27.32,27.32,0,0,0,8.48-7.82,34.66,34.66,0,0,0,5.08-11.07,49.15,49.15,0,0,0,1.67-12.7A48.55,48.55,0,0,0,496.08,78,35.27,35.27,0,0,0,491,66.94a26.4,26.4,0,0,0-8.48-7.82,23.33,23.33,0,0,0-11.89-2.94h-6.7a40.3,40.3,0,0,0-5.13.25A4.74,4.74,0,0,0,456,57.6a4.5,4.5,0,0,0-1.17,2.59,31.28,31.28,0,0,0-.26,4.52v52a31.28,31.28,0,0,0,.26,4.52,4.5,4.5,0,0,0,1.17,2.59A4.74,4.74,0,0,0,458.8,125a40.3,40.3,0,0,0,5.13.25Z"/><path class="cls-2" d="M561,105.23a29.13,29.13,0,0,1-3.65,9.6,26.77,26.77,0,0,1-6,6.86A23.94,23.94,0,0,1,544,125.8a25.42,25.42,0,0,1-8.23,1.37,24.12,24.12,0,0,1-8.94-1.72,22.21,22.21,0,0,1-7.72-5.13,25.84,25.84,0,0,1-5.43-8.58,32.29,32.29,0,0,1-2.08-12.09,34.38,34.38,0,0,1,2.28-13.21,26.86,26.86,0,0,1,5.89-9,22.61,22.61,0,0,1,8.18-5.13,27.2,27.2,0,0,1,9.14-1.62,25.31,25.31,0,0,1,7.57,1.12,21.63,21.63,0,0,1,6.45,3.2,16.13,16.13,0,0,1,4.52,5,13.12,13.12,0,0,1,1.67,6.61l-40.73-.11c-.13.75-.27,1.6-.4,2.54a18.21,18.21,0,0,0-.21,2.65,41.71,41.71,0,0,0,1.93,13.5,26.85,26.85,0,0,0,5.08,9.15,19.23,19.23,0,0,0,7.16,5.18,22,22,0,0,0,8.28,1.62,23.24,23.24,0,0,0,7.16-1.12,23.72,23.72,0,0,0,6.55-3.25,24.7,24.7,0,0,0,5.34-5.07,19.1,19.1,0,0,0,3.3-6.61ZM549.55,82.38A8.63,8.63,0,0,0,548.44,78a10.53,10.53,0,0,0-3-3.25,14,14,0,0,0-4.26-2,18.63,18.63,0,0,0-5.18-.71,21.42,21.42,0,0,0-5.59.76A19,19,0,0,0,525,75.22a22.25,22.25,0,0,0-4.72,4.16,19.82,19.82,0,0,0-3.45,6.05l29.25-.1c1.49,0,2.44-.22,2.84-.66A3.36,3.36,0,0,0,549.55,82.38Z"/><path class="cls-2" d="M573.73,80a9.07,9.07,0,0,0,2.28,6.3,22.05,22.05,0,0,0,5.74,4.47,70.15,70.15,0,0,0,7.52,3.61,59.78,59.78,0,0,1,7.52,3.7,21.3,21.3,0,0,1,5.73,4.83,10.59,10.59,0,0,1,2.29,7,17,17,0,0,1-1.68,7.72,16.2,16.2,0,0,1-4.41,5.53,19.3,19.3,0,0,1-6.25,3.3,23.29,23.29,0,0,1-7.16,1.12,24,24,0,0,1-6.2-.81,23.15,23.15,0,0,1-5.74-2.39,18.3,18.3,0,0,1-4.72-4,17.45,17.45,0,0,1-3.15-5.54l2.84-1a18.7,18.7,0,0,0,3.1,5.58A19.54,19.54,0,0,0,581,126a18.76,18.76,0,0,0,5.43.81,16.26,16.26,0,0,0,5.29-.87,12.18,12.18,0,0,0,4.42-2.59,13.14,13.14,0,0,0,3-4.31,14.58,14.58,0,0,0,1.17-6,7.38,7.38,0,0,0-2.28-5.48,24.27,24.27,0,0,0-5.79-4.06q-3.51-1.83-7.52-3.51a55.13,55.13,0,0,1-7.52-3.81,22.26,22.26,0,0,1-5.79-5,10.87,10.87,0,0,1-2.28-7,12.35,12.35,0,0,1,1.32-5.79,13.12,13.12,0,0,1,3.5-4.27,15.34,15.34,0,0,1,5-2.59,19.47,19.47,0,0,1,5.74-.86,18.84,18.84,0,0,1,9.44,2.54,14.72,14.72,0,0,1,6.51,7.72l-3,.91a15.27,15.27,0,0,0-6-7.87,14.83,14.83,0,0,0-7.93-2.49,11.34,11.34,0,0,0-7,2.24A7.51,7.51,0,0,0,573.73,80Z"/><path class="cls-2" d="M620.76,56.38a6.29,6.29,0,0,1-1.27,3.55q-1.28,1.83-3,3.86a42.87,42.87,0,0,1-3-3.86,6.42,6.42,0,0,1-1.21-3.55,4.2,4.2,0,0,1,1.21-3,4,4,0,0,1,3-1.27,4.34,4.34,0,0,1,4.27,4.27Zm-7.62,18.18,6.8-3.76v55.36h-6.8Z"/><path class="cls-2" d="M655.09,121.69a78.79,78.79,0,0,1,10,.2,25.51,25.51,0,0,1,7.72,1.78,10.77,10.77,0,0,1,4.93,4,12.65,12.65,0,0,1,1.72,7,15.78,15.78,0,0,1-2.28,8.13,20.53,20.53,0,0,1-6.81,6.75,38.5,38.5,0,0,1-11.27,4.62,64.32,64.32,0,0,1-15.8,1.73V155a79.79,79.79,0,0,0,9.25-.66,49,49,0,0,0,10.36-2.44,25.71,25.71,0,0,0,8.48-4.88,10.13,10.13,0,0,0,3.5-8q0-6.7-4.67-9.24t-15.13-2c-1.56,0-3.1,0-4.62,0s-3,0-4.42,0a30.36,30.36,0,0,1-4.73-.35,13.25,13.25,0,0,1-3.86-1.22,7,7,0,0,1-2.64-2.34,6.44,6.44,0,0,1-1-3.6,6.07,6.07,0,0,1,2.59-4.68c1.72-1.42,4.32-2.3,7.77-2.64a21,21,0,0,1-6.05-2.54A19.23,19.23,0,0,1,633.3,106a19.51,19.51,0,0,1-3.25-6,24.3,24.3,0,0,1-1.17-7.82,22.75,22.75,0,0,1,1.83-9.44,19.3,19.3,0,0,1,4.93-6.76,20.4,20.4,0,0,1,7.16-4,27.38,27.38,0,0,1,8.53-1.32L675.1,69l-.31,2.85-17.16-.51a22.44,22.44,0,0,1,6.24,2.54,18.44,18.44,0,0,1,5,4.32,20,20,0,0,1,3.3,6.09,23.94,23.94,0,0,1,1.22,7.87,22.83,22.83,0,0,1-1.83,9.45,19.53,19.53,0,0,1-4.87,6.75,20.66,20.66,0,0,1-7.06,4.07,26.21,26.21,0,0,1-8.48,1.37c-.55,0-1.11,0-1.68,0s-1.13-.09-1.68-.16a26.12,26.12,0,0,0-7.61,1.22c-1.83.68-2.75,1.59-2.75,2.74a2.74,2.74,0,0,0,.82,2,6.09,6.09,0,0,0,2.08,1.32,13.24,13.24,0,0,0,2.94.76,22.63,22.63,0,0,0,3.41.25c1.62,0,3.2,0,4.72-.1S654.14,121.69,655.09,121.69Zm-8.54-49.47q-5.68,1-8.53,4.57a16,16,0,0,0-3.4,8.28,24.28,24.28,0,0,0,1,9.85,30.63,30.63,0,0,0,4.46,9.25,21.71,21.71,0,0,0,7.17,6.45,13.6,13.6,0,0,0,9.09,1.52,12.71,12.71,0,0,0,10.2-8.33A19.51,19.51,0,0,0,667.68,97a28.88,28.88,0,0,0-1-7.47,30.8,30.8,0,0,0-2.95-7.16,24.5,24.5,0,0,0-4.52-5.84,17.58,17.58,0,0,0-5.79-3.66A13.05,13.05,0,0,0,646.55,72.22Z"/><path class="cls-2" d="M728.52,89.9v36.26h-6.8V89.9a19.88,19.88,0,0,0-1.22-7.27,14.93,14.93,0,0,0-3.25-5.13,13.42,13.42,0,0,0-4.67-3,14.89,14.89,0,0,0-5.39-1,15.12,15.12,0,0,0-5.79,1.17,16.11,16.11,0,0,0-5.13,3.4,16.84,16.84,0,0,0-3.7,5.59,19.58,19.58,0,0,0-1.43,7.72v34.84h-6.8v-49l6.8-5.79V83.5a17.53,17.53,0,0,1,3.1-5.49,19.31,19.31,0,0,1,4.52-3.91,21.09,21.09,0,0,1,5.39-2.38,20.61,20.61,0,0,1,5.79-.82,20.38,20.38,0,0,1,6.85,1.17,17.28,17.28,0,0,1,5.89,3.51,16.89,16.89,0,0,1,4.17,5.94,20.74,20.74,0,0,1,1.57,8.38Z"/><path class="cls-2" d="M87.52,39.16q13.86.17,24.13,5.06a51.53,51.53,0,0,1,17.19,13,54.07,54.07,0,0,1,10.35,18.34,65.64,65.64,0,0,1,3.43,20.95,64.88,64.88,0,0,1-3.43,20.86,53.31,53.31,0,0,1-10.35,18.17,51,51,0,0,1-17.27,12.8q-10.36,4.8-24,4.64H50.69V39.16Zm0,112.31a36.78,36.78,0,0,0,19.07-4.81,43.55,43.55,0,0,0,13.61-12.55,55.43,55.43,0,0,0,8.15-17.77A78,78,0,0,0,131,96a77.15,77.15,0,0,0-2.69-20.3,56.49,56.49,0,0,0-8.15-17.76,42.18,42.18,0,0,0-13.61-12.55,37.34,37.34,0,0,0-19.07-4.73H76.77a65.11,65.11,0,0,0-8.24.41,7.59,7.59,0,0,0-4.48,1.87,7.2,7.2,0,0,0-1.87,4.16,50.9,50.9,0,0,0-.41,7.25v83.46a50.9,50.9,0,0,0,.41,7.25,7.16,7.16,0,0,0,1.87,4.15,7.59,7.59,0,0,0,4.48,1.88,65.11,65.11,0,0,0,8.24.41Z"/><path class="cls-2" d="M27.19,151.44V37.11H38.33V151.44Z"/><path class="cls-1" d="M589.47,136.59a2.56,2.56,0,0,0,.45,1.53,4.47,4.47,0,0,0,1.16,1.13,8.54,8.54,0,0,0,1.65.87c.62.25,1.26.49,1.92.73s1.29.5,1.91.77a8.65,8.65,0,0,1,1.65.93,4.55,4.55,0,0,1,1.17,1.23,3.14,3.14,0,0,1,.44,1.68,5.31,5.31,0,0,1-.52,2.41,5,5,0,0,1-1.39,1.72,6,6,0,0,1-2,1,7.8,7.8,0,0,1-4.27.1,6.49,6.49,0,0,1-3.29-2,5.2,5.2,0,0,1-1-1.73l.67-.3a5.66,5.66,0,0,0,1,1.72,6,6,0,0,0,1.42,1.19,6.8,6.8,0,0,0,1.69.71,7.25,7.25,0,0,0,1.78.23,6.57,6.57,0,0,0,1.88-.27,5,5,0,0,0,1.6-.8,4,4,0,0,0,1.12-1.3,3.74,3.74,0,0,0,.42-1.8,2.19,2.19,0,0,0-.77-1.7,7.68,7.68,0,0,0-1.94-1.22c-.78-.35-1.61-.69-2.51-1a20.49,20.49,0,0,1-2.5-1.11,6.71,6.71,0,0,1-1.94-1.49,3.16,3.16,0,0,1-.77-2.16,4,4,0,0,1,.45-1.92,4.19,4.19,0,0,1,1.18-1.39,5,5,0,0,1,1.67-.85,6.69,6.69,0,0,1,1.94-.28,7.09,7.09,0,0,1,1.58.18,5.92,5.92,0,0,1,1.45.57,5.37,5.37,0,0,1,1.21,1,4.24,4.24,0,0,1,.85,1.4l-.6.29a5.61,5.61,0,0,0-.9-1.4,5.08,5.08,0,0,0-1.18-1,5.54,5.54,0,0,0-1.36-.55,5.29,5.29,0,0,0-2.88,0,4.14,4.14,0,0,0-1.25.6,3,3,0,0,0-.87.94A2.5,2.5,0,0,0,589.47,136.59Z"/><path class="cls-1" d="M603.92,147.44a4.53,4.53,0,0,0,.18,1.27,3.89,3.89,0,0,0,.54,1.1,2.42,2.42,0,0,0,.88.77,2.57,2.57,0,0,0,1.23.29V151a4.73,4.73,0,0,1-2.15-.43,3.71,3.71,0,0,1-1.38-1.19,5.19,5.19,0,0,1-.74-1.78,10.2,10.2,0,0,1-.23-2.21v-7.67h-1.34v-.22h1.34v-2.09l1.67-.94v3h2.23v.22h-2.23Z"/><path class="cls-1" d="M618.62,137.39v13.53L617,150.3v-3.5a5.71,5.71,0,0,1-.67,1.93,4.93,4.93,0,0,1-1.12,1.37,4.52,4.52,0,0,1-1.4.82,4.47,4.47,0,0,1-1.52.27,4.38,4.38,0,0,1-1.64-.31,4.26,4.26,0,0,1-1.42-.93,4.64,4.64,0,0,1-1-1.54,5.59,5.59,0,0,1-.37-2.13v-8l1.66-.92v8.89a4.16,4.16,0,0,0,.3,1.63,3.62,3.62,0,0,0,.79,1.22,3.53,3.53,0,0,0,1.14.77,3.39,3.39,0,0,0,1.32.27,3.22,3.22,0,0,0,1.41-.32,3.49,3.49,0,0,0,1.26-1,5.48,5.48,0,0,0,.9-1.74,8,8,0,0,0,.35-2.55v-6.25Z"/><path class="cls-1" d="M633.24,130.34v20.73h-.1l-1.56-1.57v-3.4a7.36,7.36,0,0,1-.89,2.21,6.6,6.6,0,0,1-1.35,1.59,5.45,5.45,0,0,1-3.47,1.29,4.7,4.7,0,0,1-3.49-1.52,5.64,5.64,0,0,1-1.13-1.92,7.93,7.93,0,0,1-.42-2.72,8.26,8.26,0,0,1,.62-3.36,7.19,7.19,0,0,1,1.61-2.38,6.49,6.49,0,0,1,2.23-1.43,7,7,0,0,1,2.46-.47,5.9,5.9,0,0,1,2.11.38,4.53,4.53,0,0,1,1.72,1.18v-7.67Zm-1.66,13.75v-2.28a3.63,3.63,0,0,0-1.38-2.91,4.49,4.49,0,0,0-1.44-.75,5.28,5.28,0,0,0-1.68-.27,5.54,5.54,0,0,0-1.87.33,4.58,4.58,0,0,0-1.68,1,5.05,5.05,0,0,0-1.2,1.73,6.15,6.15,0,0,0-.46,2.51,9.13,9.13,0,0,0,.41,2.91,5.85,5.85,0,0,0,1.09,2,4.48,4.48,0,0,0,1.55,1.19,4.14,4.14,0,0,0,1.76.4,4.51,4.51,0,0,0,1.8-.38,4.8,4.8,0,0,0,1.57-1.13,5.9,5.9,0,0,0,1.1-1.85A7.17,7.17,0,0,0,631.58,144.09Z"/><path class="cls-1" d="M637.88,133.86a1.52,1.52,0,0,1-.31.87c-.21.3-.45.61-.73,1-.28-.34-.52-.65-.72-1a1.57,1.57,0,0,1-.3-.87,1,1,0,0,1,.3-.73,1,1,0,0,1,.72-.31,1.06,1.06,0,0,1,1,1ZM636,138.31l1.66-.92v13.53H636Z"/><path class="cls-1" d="M646.25,137.39a6.15,6.15,0,0,1,2.7.56,5.73,5.73,0,0,1,2,1.51,6.75,6.75,0,0,1,1.26,2.2,8.2,8.2,0,0,1,0,5.24,6.71,6.71,0,0,1-1.26,2.19,5.76,5.76,0,0,1-2,1.52,6.79,6.79,0,0,1-5.4,0,5.87,5.87,0,0,1-2-1.52,6.71,6.71,0,0,1-1.26-2.19,8.2,8.2,0,0,1,0-5.24,6.75,6.75,0,0,1,1.26-2.2,5.84,5.84,0,0,1,2-1.51A6.15,6.15,0,0,1,646.25,137.39Zm-4.89,5.41a10,10,0,0,0,.49,3.43,7.67,7.67,0,0,0,1.37,2.43,5.51,5.51,0,0,0,1.89,1.45,4.94,4.94,0,0,0,2.08.49,3.93,3.93,0,0,0,1.48-.28,3.44,3.44,0,0,0,1.25-.82,3.79,3.79,0,0,0,.87-1.36,5.48,5.48,0,0,0,.35-1.89,10.1,10.1,0,0,0-.49-3.56,8,8,0,0,0-1.4-2.6,6.2,6.2,0,0,0-1.93-1.58,4.59,4.59,0,0,0-2.12-.55,3.65,3.65,0,0,0-1.44.3,3.37,3.37,0,0,0-1.21.89,4.71,4.71,0,0,0-.85,1.5A6.83,6.83,0,0,0,641.36,142.8Z"/><path class="cls-3" d="M53.62,162a8.35,8.35,0,0,1-.75-.65A9.47,9.47,0,0,1,51,158.86l-.21,1.22H49.41l-1.6.09-.26-6.49c-.69.34-1.38.67-2.08,1-6,2.62-12.13,4-19.57,5.36l-1.33.24-.88.15-.59-.67-.2-.23-.78-.89.63-1,.54-.87c.38-.61.76-1.23,1.17-1.84.68-1,1.26-1.88,1.9-2.72a5.43,5.43,0,0,1,1.51-1.35,7.27,7.27,0,0,1,1.66-.71L31,149.7c1-.27,1.88-.53,2.79-.84,2.41-.82,4.85-1.69,7.25-2.54L39,144.88l1.34-2.82.38.11a21.75,21.75,0,0,1-1.88-2.89l2.44-1.93a16.55,16.55,0,0,0,2.85,2,24.31,24.31,0,0,1,.92-7.52l2.38.14a39.91,39.91,0,0,1,1.17-5.77l1.23-4.53,1.4,3.45a20.86,20.86,0,0,1,7.35-16.3,47.1,47.1,0,0,1,9.13-6.09c4.78-2.54,8.14-5.27,10.56-8.57a32.17,32.17,0,0,0,3.92-6.84A44.61,44.61,0,0,0,85.41,71.7l0-.6a2.44,2.44,0,0,1,0-.48c0-.06,0-.14,0-.23L86.1,66l1,1.67A20,20,0,0,1,88.3,59l2.23.27A35.12,35.12,0,0,1,97.19,44.9c.45-.58.93-1.16,1.47-1.76l.6-.65h0l.45-.47a34.72,34.72,0,0,1,3.89-3.42,40.8,40.8,0,0,1,4.77-3.08c1.1-.6,2.26-1.17,3.46-1.68a45,45,0,0,1,7.64-2.51c1-.24,2-.42,3.09-.62.49-.09,1-.18,1.52-.29l1.21,2.85-.69.48a8.6,8.6,0,0,0-1,.73,21.78,21.78,0,0,0-5,6.55c-1.32,2.58-2.63,5.22-3.77,7.54l1.29.89c-.08.19-.16.35-.23.5a3,3,0,0,0-.17.42c-.11.38-.23.75-.35,1.11a7.88,7.88,0,0,0-.5,2.11,14.27,14.27,0,0,1-1.42,6l1.35-1.06-.58,3.93a45.17,45.17,0,0,0,.28,14c.12.72.26,1.42.42,2.17.22,1,.44,2.14.58,3.25a22.94,22.94,0,0,1-2.34,13.21c-.3.63-.63,1.23-1,1.82L114.33,98a43.45,43.45,0,0,1-4.78,12.22,35.42,35.42,0,0,1-4.39,5.93l.79-.62,2.43,1.89c-.48,1-1,2.06-1.53,3.09a48.63,48.63,0,0,1-5.47,8.34,35.68,35.68,0,0,1-7,6.62,31.8,31.8,0,0,1-3.51,2.17l1.51-.3.09,0,1.34,2.76c-1.71,1.44-3.16,2.63-4.7,3.75a47.69,47.69,0,0,1-12,6.48h0L76,150.7c-.68.22-1.39.43-2.11.61s-1.23.3-1.84.42a30.47,30.47,0,0,1-6.11.66h-.46l.32.15,1.35.62-.58,3c-.48,0-1,.05-1.46.05a26.66,26.66,0,0,1-5.93-.7l-.68-.16-.84,2.08-.16,0A9.79,9.79,0,0,1,54.46,156c.25.71.53,1.43.82,2.16.16.41.32.81.47,1.22s.23.61.33.91l1.78,5.06Z"/><path class="cls-1" d="M119.83,32.87a43.66,43.66,0,0,0-7.38,2.42c-1.13.49-2.23,1-3.32,1.62a38,38,0,0,0-4.58,3,31,31,0,0,0-3.7,3.26h0c-.35.35-.68.7-1,1.07-.49.54-1,1.1-1.4,1.67a34.65,34.65,0,0,0-6.81,16,3.13,3.13,0,0,1-.1.44,1.06,1.06,0,0,1-.15.22l0,0a3.87,3.87,0,0,1-1.55-2.93,19.64,19.64,0,0,0-.11,12.93c.17.55.36,1.1.56,1.65a7.64,7.64,0,0,1-.77-.61,11.78,11.78,0,0,1-2.39-2.89,4.73,4.73,0,0,0-.07.55c0,.2,0,.41,0,.6a46.07,46.07,0,0,1-3.37,16.18,34.13,34.13,0,0,1-4.11,7.18,31.78,31.78,0,0,1-11.1,9A44.18,44.18,0,0,0,59.6,110a19.36,19.36,0,0,0-6.79,16.37A34.88,34.88,0,0,0,54.22,134a1.78,1.78,0,0,1,.1.7,15,15,0,0,1-2.46-3.79c-.39-.84-.74-1.71-1.09-2.59-.23-.56-.45-1.13-.68-1.71a29.81,29.81,0,0,0-1,13,21.91,21.91,0,0,1-2.52-7.36,19.27,19.27,0,0,0-.42,9.91,22.78,22.78,0,0,1-5.94-3.63,19.16,19.16,0,0,0,5,5.94c-.76.22-2.88-.2-5.3-.87l4.4,3.09a3.81,3.81,0,0,1-.76.43q-4.62,1.65-9.25,3.25c-1.4.48-2.85.85-4.28,1.28a5.43,5.43,0,0,0-1.3.56,3.68,3.68,0,0,0-1.07.94c-.65.86-1.25,1.75-1.84,2.64s-1.13,1.79-1.69,2.68l.2.24,1.33-.24c6.58-1.16,13.09-2.55,19.22-5.25A45.41,45.41,0,0,0,49,151.12c.09,2.47.2,4.93.29,7.39h.18c.31-1.78.63-3.56.94-5.34h.22c.89,2.47,1.34,5.17,3.3,7.08a8.14,8.14,0,0,0,.63.54l-.31-.87c-1-2.52-2.14-5-2.15-7.78,1.85,1.41,3.45,3.14,5.8,3.73l.15,0-.11-.07a24.8,24.8,0,0,1-2.09-1.34,4.34,4.34,0,0,1-1.67-2.14A48.25,48.25,0,0,0,59.56,154a24.58,24.58,0,0,0,7,.61c-1.46-.69-2.78-1.23-4-1.93-.4-.23-.83-.45-1.23-.7a4.88,4.88,0,0,1-2-2.09c.28,0,.42,0,.55.07a21.15,21.15,0,0,0,2.63.6,26,26,0,0,0,9.37-.35c.59-.12,1.18-.25,1.76-.4s1.35-.37,2-.59h0a45.1,45.1,0,0,0,12.62-6.62c1.58-1.15,3.1-2.4,4.61-3.68A37.79,37.79,0,0,1,82.31,140a17.45,17.45,0,0,1-1.87-.25c-.45-.09-.91-.19-1.37-.32l-.4-.12v-.17l.61,0,1.65-.1c.33,0,.67-.06,1-.11s.85-.12,1.28-.19a26,26,0,0,0,10.25-4.52,34.37,34.37,0,0,0,6.7-6.33,47.94,47.94,0,0,0,5.29-8.07c.51-1,1-2,1.49-3a30.88,30.88,0,0,1-14.65,6.82l-.58.08c.24-.1.47-.2.7-.32a34.28,34.28,0,0,0,15.78-13.93,41.76,41.76,0,0,0,4.6-11.79,25.38,25.38,0,0,1-4,3.89A9,9,0,0,1,105.6,103l-.15-.17,1.44-1.47a27.1,27.1,0,0,0,2-2.3,28.68,28.68,0,0,0,2.88-4.68,21.34,21.34,0,0,0,2.18-12.31c-.22-1.8-.7-3.57-1-5.36a46.34,46.34,0,0,1-.28-14.5c-.46.35-.89.73-1.34,1.08a5.52,5.52,0,0,1-3.6,1.49l-.3,0,.34-.34c.54-.52,1.1-1,1.59-1.59a17,17,0,0,0,2.39-3.38h0a13,13,0,0,0,1.55-5.88,15.27,15.27,0,0,1,.9-3.61c.1-.34.28-.65.47-1.11L112.38,51h0l-.1.09-.17-.1c.11-.26.21-.53.31-.79h0a17.08,17.08,0,0,1,.65-1.59c1.36-2.77,2.73-5.54,4.14-8.28a23.45,23.45,0,0,1,5.34-7c.51-.45,1.11-.8,1.83-1.31C122.76,32.29,121.28,32.53,119.83,32.87ZM102.61,61.51c0,.51-.07,1-.11,1.52,0,.06,0,.12,0,.18l-.12,1.46c0,.4-.08.79-.13,1.18s-.08.78-.13,1.17L102,68c0,.35-.09.69-.14,1-.08.63-.17,1.25-.27,1.88-.07.45-.15.9-.22,1.34l0,.24,0,.18-.06.35-.12.65-.09.51a1.18,1.18,0,0,1,0,.2c-.07.39-.14.77-.22,1.15v.05c-.09.45-.18.91-.28,1.36,0,.08,0,.15,0,.23l0,.07-.07.3Q100,79.27,99.55,81c-.06.27-.13.54-.2.82s-.2.79-.31,1.19l-.16.61c-.11.42-.22.84-.34,1.26s-.29,1-.44,1.52c0,.19-.11.38-.16.57-.44,1.5-.91,3-1.4,4.46,0,0,0,.09-.05.14-.08.25-.17.51-.26.77l-.42,1.2c0,.13-.09.26-.14.38-.1.29-.21.58-.32.88-.21.55-.41,1.11-.63,1.66-.14.37-.29.73-.44,1.1-.07.18-.14.36-.22.54-.23.57-.47,1.13-.71,1.7l-.45,1-.74,1.61c-.08.17-.17.35-.25.53a3.54,3.54,0,0,0-.16.34l-.36.72c-.51,1-1,2.06-1.54,3.09l-.4.79c-.13.25-.26.49-.38.74s-.35.68-.54,1l-.13.25-.14.25-.27.5h0l-.27.47,0,.08-.25.43-.16.29a.56.56,0,0,0,0,.08h0c0,.05,0,.1-.08.14-.42.72-.84,1.43-1.27,2.13l-.43.71h0l-.44.7c-.09.15-.19.29-.28.43l-.41.65c-.82,1.26-1.67,2.49-2.57,3.7l-.28.38-.07.09-.15.19q-.3.4-.63.81l-.33.43-.58.7c-2,2.36-3.92,4.74-6,7l-.1.12-.75.8c-.28.3-.57.59-.85.88l-.68.69-.39.38-.4.39-.63.6-.57.54-.72.65-.74.66-.77.66-.45.38-.07.06-.64.52c-.22.19-.45.37-.68.55l-.56.43-1.11.84-.43.32c-.4.28-.79.57-1.19.84-1.13.81-2.26,1.6-3.41,2.37-.48.33-.95.65-1.43,1l-.11.07-.86.56-.94.6-1,.65-.48.3-.83.5-.87.52c-.72.41-1.45.81-2.2,1.19-.21.12-.43.23-.65.33-.73.37-1.47.73-2.22,1.07l-1,.46-1,.44-1.34.56-.67.28c-.12,0-.25.09-.37.15-2.35.93-4.72,1.81-7.08,2.7l-1.36.51-.2.06a.57.57,0,0,1-.22,0,.28.28,0,0,1-.13,0h0c-.12-.08-.17-.25-.15-.5,0,0,0-.05,0-.07a1.24,1.24,0,0,1,.1-.35l.06-.13.12-.2a1,1,0,0,1,.08-.11l.06-.09,0,0,.05-.06,0-.06.06-.06.11-.11h0l.11-.1.12-.09.09-.07.17-.1.11-.05.06,0,.06,0,1.48-.42,1-.28.52-.16c.12,0,.25-.07.37-.12l.36-.11.56-.18.18-.06.27-.1.45-.16.24-.08.48-.18,1.18-.46.47-.19.46-.2.23-.09.69-.29.56-.25.24-.1.31-.14.33-.15.55-.25h0l.19-.09h0l.06,0,.35-.17h0l.88-.43c.15-.06.3-.14.44-.21l.2-.1c.21-.1.42-.2.62-.31l.8-.41c.8-.42,1.6-.85,2.39-1.3l.57-.34.08,0a1,1,0,0,0,.17-.1h0l.1-.06.14-.08.77-.46.13-.08.65-.4.64-.4.36-.22.13-.08.09-.06,0,0s0,0,0,0l.26-.17L57,142l.54-.37.31-.21.41-.29.71-.5.57-.41.57-.41.22-.17c.59-.43,1.16-.87,1.73-1.31l.14-.12.44-.35.54-.43c.51-.41,1-.83,1.52-1.26l.53-.45.19-.16.22-.2,0,0,.45-.4a.52.52,0,0,0,.11-.1c.45-.39.89-.79,1.33-1.19l.48-.45.48-.45.63-.6.62-.6c.5-.49,1-1,1.48-1.49l.87-.9.86-.91c.4-.43.79-.86,1.17-1.3l.7-.78c.55-.63,1.09-1.27,1.63-1.91a3.76,3.76,0,0,1,.25-.31l.51-.63.58-.72.57-.74.12-.14,0,0c.06-.08.12-.15.17-.23l.07-.09.16-.2.51-.68.61-.83c.55-.75,1.09-1.51,1.62-2.27l.53-.77c.18-.27.37-.54.55-.82l.54-.83c.06-.11.13-.21.2-.32s.22-.34.32-.51l.52-.85c.24-.38.47-.77.7-1.16l.22-.38c0-.05.06-.11.1-.16l1-1.72c.44-.78.88-1.56,1.31-2.36h0c.22-.41.45-.82.66-1.24l.3-.56c.61-1.16,1.2-2.33,1.76-3.51,1.36-2.88,2.68-5.8,3.77-8.79.18-.48.36-1,.53-1.46s.4-1.13.59-1.7c.07-.17.12-.34.18-.51s.15-.45.23-.67c.34-1,.66-2,1-3,.16-.49.31-1,.47-1.48s.31-1,.45-1.49.31-1,.46-1.5l.33-1.13.12-.42c.07-.25.13-.49.2-.73l.27-1c.29-1.07.55-2.15.81-3.23,0-.13,0-.25.08-.37s.05-.18.07-.27l.15-.66c.06-.27.12-.54.17-.81s.07-.3.11-.45,0-.06,0-.09c.09-.39.17-.79.25-1.18s.16-.78.23-1.17.15-.77.23-1.16.17-.89.25-1.34c.27-1.5.52-3,.75-4.5l.09-.55.09-.55.07-.48v-.07l.09-.49v-.06h.19C102.61,61.09,102.62,61.3,102.61,61.51Z"/><circle class="cls-1" cx="32.54" cy="24.98" r="6.47"/></svg>