<svg id="Layer_1" data-name="Layer 1" xmlns="http://www.w3.org/2000/svg" viewBox="0 0 378.38 301.34"><defs><style>.cls-1{fill:#b3541e;}.cls-2{fill:#362222;}.cls-3{fill:#fff;}</style></defs><path class="cls-1" d="M19.66,221.77a4.06,4.06,0,0,1-.83,2.31c-.55.79-1.2,1.63-1.95,2.51A25.76,25.76,0,0,1,15,224.08a4.16,4.16,0,0,1-.8-2.31,2.72,2.72,0,0,1,.8-2,2.54,2.54,0,0,1,1.91-.83,2.84,2.84,0,0,1,2.78,2.78Zm-5,11.82,4.43-2.44v36H14.7Z"/><path class="cls-2" d="M31.25,212.39v54.76H26.82V214.9Z"/><path class="cls-2" d="M43.07,212.39v54.76H38.65V214.9Z"/><path class="cls-2" d="M78.75,231.15v36l-4.43-1.65v-9.31a15.87,15.87,0,0,1-1.78,5.15,13.61,13.61,0,0,1-3,3.63,12,12,0,0,1-3.74,2.18,11.83,11.83,0,0,1-8.42-.09,10.89,10.89,0,0,1-3.77-2.48,12.18,12.18,0,0,1-2.64-4.1,15,15,0,0,1-1-5.68V233.59l4.43-2.44V254.8a11.3,11.3,0,0,0,.79,4.36,9.83,9.83,0,0,0,2.11,3.24,9.65,9.65,0,0,0,3,2.05,9,9,0,0,0,3.5.72,8.75,8.75,0,0,0,3.77-.86A9.58,9.58,0,0,0,71,261.64,14.31,14.31,0,0,0,73.4,257a22,22,0,0,0,.92-6.77V233.59Z"/><path class="cls-2" d="M89.19,237.16a5.9,5.9,0,0,0,1.48,4.1,14.28,14.28,0,0,0,3.74,2.9,45.23,45.23,0,0,0,4.88,2.35,39.73,39.73,0,0,1,4.89,2.41,13.94,13.94,0,0,1,3.74,3.14,6.91,6.91,0,0,1,1.48,4.52,11,11,0,0,1-1.09,5,10.59,10.59,0,0,1-2.87,3.61,12.67,12.67,0,0,1-4.07,2.14,15,15,0,0,1-4.65.73,15.64,15.64,0,0,1-4-.53A15.15,15.15,0,0,1,89,266a11.85,11.85,0,0,1-3.07-2.58,11.37,11.37,0,0,1-2-3.6l1.85-.66a12.1,12.1,0,0,0,2,3.63,13.24,13.24,0,0,0,2.87,2.65A12.59,12.59,0,0,0,93.91,267a12.23,12.23,0,0,0,3.53.53,10.74,10.74,0,0,0,3.44-.56,7.88,7.88,0,0,0,2.87-1.69,8.24,8.24,0,0,0,2-2.8,9.47,9.47,0,0,0,.77-3.93A4.81,4.81,0,0,0,105,255a15.68,15.68,0,0,0-3.77-2.64q-2.28-1.2-4.89-2.28a36.55,36.55,0,0,1-4.88-2.48,14.28,14.28,0,0,1-3.77-3.24,7,7,0,0,1-1.49-4.56,8,8,0,0,1,.86-3.76,8.45,8.45,0,0,1,2.28-2.78,9.8,9.8,0,0,1,3.24-1.68,12.44,12.44,0,0,1,9.88,1.09,9.57,9.57,0,0,1,4.22,5l-2,.59a9.92,9.92,0,0,0-3.9-5.12,9.65,9.65,0,0,0-5.15-1.61A7.36,7.36,0,0,0,91.13,233,4.9,4.9,0,0,0,89.19,237.16Z"/><path class="cls-2" d="M119.71,257.91a11.63,11.63,0,0,0,.49,3.36,9.79,9.79,0,0,0,1.42,2.94,6.73,6.73,0,0,0,2.35,2.05,6.8,6.8,0,0,0,3.27.76v.46a12.54,12.54,0,0,1-5.71-1.15,9.67,9.67,0,0,1-3.67-3.17,13.08,13.08,0,0,1-2-4.73,27.1,27.1,0,0,1-.6-5.88V232.14h-3.57v-.59h3.57V226l4.43-2.51v8.06h5.94v.59h-5.94Z"/><path class="cls-2" d="M135.76,240.86a16,16,0,0,1,1.72-3.8,13.54,13.54,0,0,1,2.67-3.14,12.59,12.59,0,0,1,3.44-2.08,10.12,10.12,0,0,1,4.06-.69l-.86,2a9.59,9.59,0,0,0-5.31,1.12,10.24,10.24,0,0,0-3.41,3.14,12.66,12.66,0,0,0-1.78,4.16,19.08,19.08,0,0,0-.53,4.27v21.33h-4.43V233.59l4.43-2.44Z"/><path class="cls-2" d="M174.15,244.56v22.66h-.27l-4.09-4.16v-4.89a13.48,13.48,0,0,1-1.92,4.23,12.9,12.9,0,0,1-2.87,3,12.13,12.13,0,0,1-3.44,1.78,11.61,11.61,0,0,1-3.67.6,11.09,11.09,0,0,1-3.8-.66,9.46,9.46,0,0,1-5.45-5,10.19,10.19,0,0,1-.85-4.3,9.29,9.29,0,0,1,1.71-5.68,12.4,12.4,0,0,1,4.69-3.73,26,26,0,0,1,7-2.08,53.07,53.07,0,0,1,8.63-.66v-4.3a9.73,9.73,0,0,0-.76-4,8.24,8.24,0,0,0-2-2.81,8.41,8.41,0,0,0-2.94-1.69,11,11,0,0,0-3.47-.56,12.35,12.35,0,0,0-5.25,1.22,13.11,13.11,0,0,0-4.53,3.54l-.66-.6a15.27,15.27,0,0,1,2.48-2.31,15.86,15.86,0,0,1,3.07-1.78,20.45,20.45,0,0,1,3.41-1.16,14.76,14.76,0,0,1,3.46-.43,12.69,12.69,0,0,1,4.33.76,10.09,10.09,0,0,1,3.7,2.38,11.45,11.45,0,0,1,2.58,4.26A18.86,18.86,0,0,1,174.15,244.56ZM152,257.18a11.43,11.43,0,0,0,.63,4,8.92,8.92,0,0,0,1.65,2.88,6.42,6.42,0,0,0,2.41,1.71,7.46,7.46,0,0,0,2.84.57,8.94,8.94,0,0,0,3.64-.83,9.49,9.49,0,0,0,3.3-2.51,13.58,13.58,0,0,0,2.38-4.16,16.22,16.22,0,0,0,.93-5.72v-6.74a38.91,38.91,0,0,0-7,.47,18,18,0,0,0-5.65,1.81,10,10,0,0,0-3.76,3.41A9.28,9.28,0,0,0,152,257.18Z"/><path class="cls-1" d="M196.47,221a23.26,23.26,0,0,1,9.78,2.05,20.79,20.79,0,0,1,7,5.25,22.11,22.11,0,0,1,4.2,7.43,26.86,26.86,0,0,1,1.38,8.49,26.49,26.49,0,0,1-1.38,8.46,21.84,21.84,0,0,1-4.2,7.37,20.67,20.67,0,0,1-7,5.18,22.2,22.2,0,0,1-9.75,1.88H181.54V221Zm0,45.52a14.92,14.92,0,0,0,7.73-1.95,17.56,17.56,0,0,0,5.52-5.09,22.19,22.19,0,0,0,3.3-7.2,31.6,31.6,0,0,0,1.09-8.26,31.24,31.24,0,0,0-1.09-8.22,22.59,22.59,0,0,0-3.3-7.2,17.1,17.1,0,0,0-5.52-5.09,15.1,15.1,0,0,0-7.73-1.91h-4.36a26.27,26.27,0,0,0-3.33.16,3.07,3.07,0,0,0-1.82.76,2.92,2.92,0,0,0-.76,1.69,20.59,20.59,0,0,0-.16,2.94V261a20.79,20.79,0,0,0,.16,2.94,2.86,2.86,0,0,0,.76,1.68,3.07,3.07,0,0,0,1.82.76,24.23,24.23,0,0,0,3.33.17Z"/><path class="cls-2" d="M255.27,253.54a19,19,0,0,1-2.38,6.25,17.53,17.53,0,0,1-3.86,4.46,15.64,15.64,0,0,1-4.86,2.67,16.46,16.46,0,0,1-5.35.9,15.64,15.64,0,0,1-5.81-1.13,14.41,14.41,0,0,1-5-3.33,16.63,16.63,0,0,1-3.54-5.59,21,21,0,0,1-1.35-7.86,22.32,22.32,0,0,1,1.48-8.59,17.31,17.31,0,0,1,3.84-5.84,14.6,14.6,0,0,1,5.31-3.34,17.84,17.84,0,0,1,6-1.06,16.64,16.64,0,0,1,4.92.73,14.34,14.34,0,0,1,4.2,2.08,10.41,10.41,0,0,1,2.94,3.27,8.6,8.6,0,0,1,1.09,4.29l-26.49-.06q-.14.72-.27,1.65a12,12,0,0,0-.13,1.72,27.23,27.23,0,0,0,1.25,8.78,17.36,17.36,0,0,0,3.31,6,12.29,12.29,0,0,0,4.66,3.37,14.06,14.06,0,0,0,5.38,1.06,15.12,15.12,0,0,0,4.66-.73,15.69,15.69,0,0,0,4.26-2.11,16,16,0,0,0,3.47-3.31,12.27,12.27,0,0,0,2.14-4.29Zm-7.46-14.86a5.61,5.61,0,0,0-.73-2.84,6.68,6.68,0,0,0-1.92-2.11,8.8,8.8,0,0,0-2.77-1.33,12.3,12.3,0,0,0-3.37-.46,14,14,0,0,0-3.63.5,12.44,12.44,0,0,0-3.54,1.58,14.23,14.23,0,0,0-3.07,2.71,12.92,12.92,0,0,0-2.25,3.93l19-.06a2.69,2.69,0,0,0,1.85-.43A2.22,2.22,0,0,0,247.81,238.68Z"/><path class="cls-2" d="M263.53,237.16a5.91,5.91,0,0,0,1.49,4.1,14.22,14.22,0,0,0,3.73,2.9,46.34,46.34,0,0,0,4.89,2.35,39.73,39.73,0,0,1,4.89,2.41,13.89,13.89,0,0,1,3.73,3.14,6.91,6.91,0,0,1,1.49,4.52,11.14,11.14,0,0,1-1.09,5,10.61,10.61,0,0,1-2.88,3.61,12.62,12.62,0,0,1-4.06,2.14,15.08,15.08,0,0,1-4.66.73,15.7,15.7,0,0,1-4-.53A15.08,15.08,0,0,1,263.3,266a11.68,11.68,0,0,1-3.07-2.58,11,11,0,0,1-2.05-3.6l1.85-.66a11.86,11.86,0,0,0,2,3.63,13.06,13.06,0,0,0,2.88,2.65,12.53,12.53,0,0,0,3.33,1.58,12.3,12.3,0,0,0,3.54.53,10.68,10.68,0,0,0,3.43-.56,8,8,0,0,0,2.88-1.69,8.52,8.52,0,0,0,2-2.8,9.47,9.47,0,0,0,.76-3.93,4.81,4.81,0,0,0-1.49-3.57,15.61,15.61,0,0,0-3.76-2.64q-2.28-1.2-4.89-2.28a37.3,37.3,0,0,1-4.89-2.48,14.28,14.28,0,0,1-3.77-3.24,7,7,0,0,1-1.48-4.56,7.93,7.93,0,0,1,.86-3.76,8.45,8.45,0,0,1,2.28-2.78,9.65,9.65,0,0,1,3.23-1.68,12.44,12.44,0,0,1,9.88,1.09,9.54,9.54,0,0,1,4.23,5l-2,.59a9.91,9.91,0,0,0-3.89-5.12,9.71,9.71,0,0,0-5.16-1.61,7.36,7.36,0,0,0-4.52,1.45A4.88,4.88,0,0,0,263.53,237.16Z"/><path class="cls-2" d="M294.12,221.77a4.06,4.06,0,0,1-.83,2.31c-.55.79-1.2,1.63-2,2.51a27.46,27.46,0,0,1-1.91-2.51,4.16,4.16,0,0,1-.8-2.31,2.72,2.72,0,0,1,.8-2,2.55,2.55,0,0,1,1.91-.83,2.84,2.84,0,0,1,2.78,2.78Zm-5,11.82,4.43-2.44v36h-4.43Z"/><path class="cls-2" d="M316.45,264.25a50.55,50.55,0,0,1,6.5.13,16.56,16.56,0,0,1,5,1.16,7,7,0,0,1,3.2,2.61,8.18,8.18,0,0,1,1.12,4.55,10.25,10.25,0,0,1-1.48,5.29,13.37,13.37,0,0,1-4.43,4.39,25.07,25.07,0,0,1-7.33,3,41.78,41.78,0,0,1-10.28,1.12v-.59a52,52,0,0,0,6-.43,31.44,31.44,0,0,0,6.73-1.59,16.75,16.75,0,0,0,5.52-3.17,6.6,6.6,0,0,0,2.28-5.19c0-2.9-1-4.91-3-6s-5.31-1.54-9.84-1.32c-1,0-2,0-3,0l-2.87,0a18.6,18.6,0,0,1-3.08-.24,8.21,8.21,0,0,1-2.51-.79,4.35,4.35,0,0,1-1.71-1.52,4.17,4.17,0,0,1-.63-2.34,3.94,3.94,0,0,1,1.68-3,9.29,9.29,0,0,1,5.06-1.72,13.65,13.65,0,0,1-3.93-1.65,12.32,12.32,0,0,1-3.17-2.81,12.58,12.58,0,0,1-2.12-3.93,16,16,0,0,1-.76-5.09,14.88,14.88,0,0,1,1.19-6.14,12.37,12.37,0,0,1,3.21-4.39,13.14,13.14,0,0,1,4.65-2.61A17.61,17.61,0,0,1,314,231L329.46,230l-.2,1.85-11.16-.33a14.44,14.44,0,0,1,4.06,1.65,12,12,0,0,1,3.24,2.81,13.2,13.2,0,0,1,2.15,4,15.77,15.77,0,0,1,.79,5.12,14.9,14.9,0,0,1-1.19,6.15,12.75,12.75,0,0,1-3.17,4.39,13.26,13.26,0,0,1-4.59,2.64,16.81,16.81,0,0,1-5.52.89l-1.09,0c-.37,0-.74-.05-1.09-.1a16.78,16.78,0,0,0-4.95.8c-1.19.44-1.79,1-1.79,1.78a1.79,1.79,0,0,0,.53,1.32,4,4,0,0,0,1.35.86,8.15,8.15,0,0,0,1.92.49,13.54,13.54,0,0,0,2.21.17c1.06,0,2.08,0,3.08-.07S315.83,264.25,316.45,264.25Zm-5.55-32.18a8.76,8.76,0,0,0-5.55,3,10.38,10.38,0,0,0-2.22,5.38,15.88,15.88,0,0,0,.63,6.41,20,20,0,0,0,2.91,6,14.13,14.13,0,0,0,4.66,4.2,8.88,8.88,0,0,0,5.91,1,8.31,8.31,0,0,0,6.64-5.42,12.85,12.85,0,0,0,.76-4.46,18.58,18.58,0,0,0-.66-4.86,19.84,19.84,0,0,0-1.92-4.65,15.65,15.65,0,0,0-2.94-3.8,11.36,11.36,0,0,0-3.76-2.38A8.46,8.46,0,0,0,310.9,232.07Z"/><path class="cls-2" d="M364.21,243.57v23.58h-4.43V243.57a12.79,12.79,0,0,0-.79-4.72,9.6,9.6,0,0,0-2.11-3.34,8.69,8.69,0,0,0-3-2,9.67,9.67,0,0,0-7.27.1,10.25,10.25,0,0,0-3.33,2.21,11,11,0,0,0-2.42,3.63,12.92,12.92,0,0,0-.92,5v22.66h-4.43V235.31l4.43-3.76v7.86a11.3,11.3,0,0,1,2-3.57,12.45,12.45,0,0,1,2.94-2.54,13.58,13.58,0,0,1,7.27-2.08,13.43,13.43,0,0,1,4.46.75,11.37,11.37,0,0,1,3.83,2.28,11.09,11.09,0,0,1,2.71,3.87,13.55,13.55,0,0,1,1,5.45Z"/><path class="cls-2" d="M220.45,43.23q19.05.23,33.18,7A70.9,70.9,0,0,1,277.28,68a74.49,74.49,0,0,1,14.23,25.22A90.48,90.48,0,0,1,296.22,122a89.44,89.44,0,0,1-4.71,28.69,73.46,73.46,0,0,1-14.23,25,69.91,69.91,0,0,1-23.77,17.6q-14.23,6.62-33.06,6.39H169.79V43.23Zm0,154.45q15,0,26.23-6.61a59.83,59.83,0,0,0,18.71-17.26,76,76,0,0,0,11.21-24.44,107.43,107.43,0,0,0,3.7-28,106.27,106.27,0,0,0-3.7-27.91A77.58,77.58,0,0,0,265.39,69a58.12,58.12,0,0,0-18.71-17.26q-11.22-6.51-26.23-6.5h-14.8a89.83,89.83,0,0,0-11.32.56,10.43,10.43,0,0,0-6.16,2.57,9.93,9.93,0,0,0-2.58,5.72,69,69,0,0,0-.56,10V178.85a69,69,0,0,0,.56,10,9.93,9.93,0,0,0,2.58,5.72,10.43,10.43,0,0,0,6.16,2.57,88,88,0,0,0,11.32.56Z"/><path class="cls-2" d="M137.48,197.64V40.4H152.8V197.64Z"/><path class="cls-1" d="M273.77,273.94a1.61,1.61,0,0,0,.29,1,2.83,2.83,0,0,0,.76.74,5.66,5.66,0,0,0,1.07.56c.4.17.82.32,1.24.48s.84.32,1.25.5a5.76,5.76,0,0,1,1.07.61,2.75,2.75,0,0,1,.76.8,2,2,0,0,1,.29,1.09,3.38,3.38,0,0,1-.34,1.56,3.34,3.34,0,0,1-.9,1.13,4.39,4.39,0,0,1-1.29.67,5.11,5.11,0,0,1-1.51.22,5,5,0,0,1-1.27-.16,4.65,4.65,0,0,1-1.17-.48,4.4,4.4,0,0,1-1-.8,3.25,3.25,0,0,1-.65-1.13l.43-.19a3.71,3.71,0,0,0,1.57,1.89,4.27,4.27,0,0,0,1.1.46,4.51,4.51,0,0,0,2.38,0,3.5,3.5,0,0,0,1-.52,2.73,2.73,0,0,0,.73-.85,2.46,2.46,0,0,0,.27-1.17,1.45,1.45,0,0,0-.5-1.11,5,5,0,0,0-1.26-.79c-.51-.23-1.05-.45-1.63-.66a12.15,12.15,0,0,1-1.63-.72,4.31,4.31,0,0,1-1.26-1,2,2,0,0,1-.5-1.4,2.51,2.51,0,0,1,.29-1.25,2.71,2.71,0,0,1,.77-.91,3.49,3.49,0,0,1,1.09-.55,4.36,4.36,0,0,1,1.26-.18,4.44,4.44,0,0,1,1,.12,3.54,3.54,0,0,1,.95.37,3.42,3.42,0,0,1,.79.64,2.94,2.94,0,0,1,.55.9l-.39.2a3.54,3.54,0,0,0-.59-.92,3.23,3.23,0,0,0-.77-.62,3.54,3.54,0,0,0-.88-.36,3.61,3.61,0,0,0-.91-.12,3.42,3.42,0,0,0-1,.13,3.27,3.27,0,0,0-.82.39,2,2,0,0,0-.56.62A1.58,1.58,0,0,0,273.77,273.94Z"/><path class="cls-1" d="M283.17,281a2.86,2.86,0,0,0,.12.82,2.39,2.39,0,0,0,.34.72,1.65,1.65,0,0,0,.58.5,1.72,1.72,0,0,0,.8.19v.11a3.06,3.06,0,0,1-1.4-.28,2.43,2.43,0,0,1-.9-.78,3.41,3.41,0,0,1-.48-1.15,6.5,6.5,0,0,1-.15-1.44v-5h-.87v-.14h.87V273.2l1.09-.61v2h1.45v.14h-1.45Z"/><path class="cls-1" d="M292.73,274.46v8.8l-1.09-.4v-2.28a3.9,3.9,0,0,1-.43,1.26,3.59,3.59,0,0,1-.73.89,3.1,3.1,0,0,1-.91.53,2.88,2.88,0,0,1-1,.18,2.8,2.8,0,0,1-1.07-.21,2.53,2.53,0,0,1-.92-.6,2.94,2.94,0,0,1-.65-1,3.71,3.71,0,0,1-.24-1.39v-5.18l1.08-.6v5.78a2.71,2.71,0,0,0,.2,1.06,2.5,2.5,0,0,0,.51.8,2.52,2.52,0,0,0,.75.5,2.12,2.12,0,0,0,.85.17,2.17,2.17,0,0,0,.92-.21,2.27,2.27,0,0,0,.82-.65,3.54,3.54,0,0,0,.59-1.13,5.38,5.38,0,0,0,.22-1.66v-4.06Z"/><path class="cls-1" d="M302.24,269.87v13.49h-.07l-1-1v-2.21a4.6,4.6,0,0,1-.57,1.43,4.29,4.29,0,0,1-.88,1,3.52,3.52,0,0,1-1.09.63,3.44,3.44,0,0,1-1.17.21,3.21,3.21,0,0,1-1.22-.25,3.17,3.17,0,0,1-1.05-.75,3.43,3.43,0,0,1-.73-1.24,5,5,0,0,1-.28-1.77,5.45,5.45,0,0,1,.41-2.19,4.52,4.52,0,0,1,1.05-1.55,4.2,4.2,0,0,1,1.45-.92,4.37,4.37,0,0,1,1.6-.31,3.7,3.7,0,0,1,1.37.25,2.85,2.85,0,0,1,1.11.77v-5Zm-1.09,8.95v-1.49a2.39,2.39,0,0,0-.24-1.09,2.52,2.52,0,0,0-.65-.8,3.12,3.12,0,0,0-.94-.49,3.6,3.6,0,0,0-1.09-.17A3.73,3.73,0,0,0,297,275a3.16,3.16,0,0,0-1.09.66,3.45,3.45,0,0,0-.78,1.13,4.05,4.05,0,0,0-.3,1.63,5.9,5.9,0,0,0,.27,1.89,3.74,3.74,0,0,0,.71,1.33,2.87,2.87,0,0,0,1,.77,2.6,2.6,0,0,0,1.14.26,2.83,2.83,0,0,0,1.17-.25,2.94,2.94,0,0,0,1-.73,3.7,3.7,0,0,0,.72-1.21A4.68,4.68,0,0,0,301.15,278.82Z"/><path class="cls-1" d="M305.26,272.17a1,1,0,0,1-.21.56,7.2,7.2,0,0,1-.47.61,5.59,5.59,0,0,1-.47-.61,1,1,0,0,1-.19-.56.65.65,0,0,1,.19-.48.6.6,0,0,1,.47-.2.61.61,0,0,1,.47.2A.63.63,0,0,1,305.26,272.17ZM304,275.06l1.09-.6v8.8H304Z"/><path class="cls-1" d="M310.7,274.46a4.16,4.16,0,0,1,1.76.36,3.88,3.88,0,0,1,1.31,1,4.47,4.47,0,0,1,.81,1.43,5.3,5.3,0,0,1,0,3.4,4.47,4.47,0,0,1-.81,1.43,4,4,0,0,1-1.31,1,4.16,4.16,0,0,1-1.76.36,4.05,4.05,0,0,1-1.75-.36,3.78,3.78,0,0,1-1.3-1,4.31,4.31,0,0,1-.82-1.43,5.3,5.3,0,0,1,0-3.4,4.31,4.31,0,0,1,.82-1.43,3.66,3.66,0,0,1,1.3-1A4.05,4.05,0,0,1,310.7,274.46ZM307.52,278a6.36,6.36,0,0,0,.32,2.23,4.9,4.9,0,0,0,.89,1.58,3.61,3.61,0,0,0,1.22.94,3.25,3.25,0,0,0,1.36.32,2.6,2.6,0,0,0,1-.18,2.32,2.32,0,0,0,.82-.53,2.65,2.65,0,0,0,.56-.89,3.5,3.5,0,0,0,.23-1.23,6.4,6.4,0,0,0-.32-2.31,5.13,5.13,0,0,0-.91-1.69,4,4,0,0,0-1.26-1,3,3,0,0,0-1.37-.36,2.25,2.25,0,0,0-1.73.77,3.17,3.17,0,0,0-.55,1A4.42,4.42,0,0,0,307.52,278Z"/><path class="cls-3" d="M173.82,212.21a12,12,0,0,1-1-.89,13.09,13.09,0,0,1-2.51-3.47l-.29,1.69H168l-2.21.12-.35-8.91c-.94.46-1.9.91-2.86,1.32-8.2,3.62-16.69,5.56-26.91,7.38l-1.84.32-1.21.22-.81-.93-.27-.32-1.08-1.22.87-1.38.75-1.2c.51-.82,1-1.68,1.61-2.52.93-1.41,1.73-2.58,2.61-3.75a7.51,7.51,0,0,1,2.08-1.84,9.38,9.38,0,0,1,2.28-1l2-.58c1.33-.38,2.58-.74,3.82-1.16,3.32-1.14,6.68-2.32,10-3.49l-2.83-2,1.84-3.87.53.14a29.74,29.74,0,0,1-2.6-4l3.37-2.66a21.78,21.78,0,0,0,3.92,2.77A33.33,33.33,0,0,1,162,170.69l3.28.19a57.83,57.83,0,0,1,1.61-7.93l1.7-6.23,1.91,4.74A28.72,28.72,0,0,1,180.59,139a64.28,64.28,0,0,1,12.55-8.37c6.58-3.5,11.19-7.24,14.53-11.78a44.66,44.66,0,0,0,5.39-9.42A61.29,61.29,0,0,0,217.54,88l0-.82a6.08,6.08,0,0,1,.07-.66c0-.09,0-.19.05-.32l.82-6.1,1.4,2.3a27.53,27.53,0,0,1,1.62-11.9l3.06.38a48.5,48.5,0,0,1,9.16-19.74c.62-.8,1.29-1.6,2-2.42l.84-.9h0l.61-.64a48.49,48.49,0,0,1,5.34-4.7,56.52,56.52,0,0,1,6.57-4.24c1.51-.83,3.11-1.61,4.75-2.32a62.77,62.77,0,0,1,10.51-3.44c1.4-.33,2.79-.59,4.25-.86l2.09-.39,1.67,3.91q-.5.36-1,.66a16.26,16.26,0,0,0-1.38,1,30,30,0,0,0-6.84,9c-1.83,3.56-3.63,7.19-5.19,10.37l1.76,1.23c-.1.26-.2.48-.3.69a4,4,0,0,0-.24.58c-.15.52-.32,1-.48,1.53a10.36,10.36,0,0,0-.69,2.89,19.53,19.53,0,0,1-1.95,8.21L258,69.84l-.8,5.4a61.58,61.58,0,0,0,.39,19.27c.16,1,.36,1.95.57,3,.3,1.45.61,2.94.8,4.48a31.63,31.63,0,0,1-3.21,18.17c-.43.85-.87,1.69-1.34,2.5l2.93,1.53A60.16,60.16,0,0,1,250.74,141a48.74,48.74,0,0,1-6,8.15l1.09-.85,3.34,2.59c-.66,1.46-1.37,2.85-2.1,4.26a67.32,67.32,0,0,1-7.52,11.46,49.14,49.14,0,0,1-9.65,9.12,45.6,45.6,0,0,1-4.82,3l2.07-.42.13,0,1.83,3.79c-2.34,2-4.33,3.61-6.45,5.15a65.2,65.2,0,0,1-16.47,8.92h0l-1.5.5c-.93.3-1.91.58-2.9.84-.84.21-1.69.41-2.52.58a42.45,42.45,0,0,1-8.41.9h-.63l.44.2,1.85.86-.8,4.14c-.66,0-1.33.06-2,.06a37,37,0,0,1-8.16-.95l-.93-.23-1.16,2.86-.22,0a13.25,13.25,0,0,1-4.23-2c.34,1,.72,2,1.12,3,.22.56.44,1.12.65,1.68s.31.83.46,1.24l2.44,7Z"/><path class="cls-1" d="M264.88,34.58a59.57,59.57,0,0,0-10.14,3.32q-2.34,1-4.57,2.23a50.42,50.42,0,0,0-6.3,4.07,44.43,44.43,0,0,0-5.1,4.48h0c-.47.48-.94,1-1.39,1.47-.66.75-1.31,1.51-1.93,2.31A47.82,47.82,0,0,0,226.1,74.4c0,.2-.08.4-.14.6a1.69,1.69,0,0,1-.21.3l-.05,0a5.34,5.34,0,0,1-2.14-4A27,27,0,0,0,223.42,89c.23.75.48,1.51.76,2.26a12.1,12.1,0,0,1-1.06-.83,16.1,16.1,0,0,1-3.28-4c-.05.39-.1.57-.1.76s0,.55,0,.82a63.2,63.2,0,0,1-4.65,22.25,46.52,46.52,0,0,1-5.65,9.87c-4,5.48-9.34,9.27-15.25,12.42A61.39,61.39,0,0,0,182,140.66a26.62,26.62,0,0,0-9.33,22.52,47.14,47.14,0,0,0,1.94,10.51,2.16,2.16,0,0,1,.13,1,20.5,20.5,0,0,1-3.38-5.22c-.54-1.15-1-2.34-1.5-3.55l-.94-2.36c-1.6,5.88-2.43,11.77-1.41,17.84a30,30,0,0,1-3.47-10.12c-1.18,4.6-1.77,9-.58,13.63a31.22,31.22,0,0,1-8.16-5,26,26,0,0,0,6.88,8.16c-1.05.31-4-.27-7.3-1.2,2,1.41,4,2.81,6.06,4.26a6.22,6.22,0,0,1-1,.6c-4.24,1.5-8.47,3-12.72,4.46-1.93.66-3.93,1.17-5.89,1.76a7.74,7.74,0,0,0-1.79.77,5,5,0,0,0-1.46,1.3c-.9,1.18-1.73,2.4-2.54,3.63s-1.55,2.46-2.33,3.68l.28.33,1.84-.32c9-1.61,18-3.52,26.42-7.23a60.65,60.65,0,0,0,5.76-2.88c.14,3.4.28,6.78.41,10.16h.24c.43-2.45.87-4.9,1.3-7.35h.29c1.23,3.39,1.85,7.12,4.55,9.74a10.57,10.57,0,0,0,.87.74c-.14-.39-.29-.79-.44-1.19-1.31-3.47-2.93-6.84-2.95-10.71,2.54,1.95,4.75,4.32,8,5.13l.21.05-.16-.1c-1-.61-2-1.15-2.88-1.84a6,6,0,0,1-2.3-3,63,63,0,0,0,7.38,2.24,33.52,33.52,0,0,0,9.55.85c-2-.95-3.82-1.7-5.53-2.66-.56-.31-1.14-.62-1.7-1a6.85,6.85,0,0,1-2.79-2.87c.39.05.58,0,.77.09a27.59,27.59,0,0,0,3.61.82,35.88,35.88,0,0,0,12.89-.47c.81-.17,1.62-.36,2.41-.56s1.86-.51,2.76-.8h0a61.57,61.57,0,0,0,17.37-9.11c2.18-1.58,4.25-3.3,6.33-5.05-4.8,1-9.59,2-14.4,1.57a25.36,25.36,0,0,1-2.56-.35c-.63-.12-1.26-.26-1.89-.44l-.55-.16v-.25l.84,0,2.27-.15c.46,0,.92-.08,1.37-.14.6-.07,1.18-.17,1.76-.27a35.71,35.71,0,0,0,14.1-6.21,46.74,46.74,0,0,0,9.22-8.71,66.21,66.21,0,0,0,7.27-11.09c.7-1.36,1.41-2.73,2.05-4.15-6,4.79-12.55,8.2-20.14,9.38l-.81.11,1-.43a47.22,47.22,0,0,0,21.7-19.17,57.55,57.55,0,0,0,6.33-16.21,33.89,33.89,0,0,1-5.53,5.34,12.46,12.46,0,0,1-4.36,2l-.21-.23,2-2a34.2,34.2,0,0,0,2.73-3.18,38.47,38.47,0,0,0,4-6.43,29.41,29.41,0,0,0,3-16.94c-.3-2.47-1-4.9-1.36-7.36a63.79,63.79,0,0,1-.39-20c-.63.49-1.23,1-1.84,1.49a7.62,7.62,0,0,1-4.95,2l-.42,0,.48-.47c.74-.72,1.5-1.43,2.18-2.19a24.54,24.54,0,0,0,3.29-4.64h0A17.59,17.59,0,0,0,255.89,63c0-1.66.79-3.31,1.25-5a15.54,15.54,0,0,1,.64-1.51l-3.15,2.9h0a.86.86,0,0,0-.14.13l-.22-.15c.14-.36.28-.72.41-1.08h0a23.26,23.26,0,0,1,.91-2.18q2.79-5.72,5.68-11.38a32.39,32.39,0,0,1,7.35-9.65,30.77,30.77,0,0,1,2.52-1.8C268.91,33.78,266.87,34.11,264.88,34.58ZM241.19,74c0,.7-.1,1.39-.15,2.09,0,.08,0,.16,0,.25-.05.67-.11,1.34-.17,2s-.11,1.07-.17,1.61l-.18,1.61c-.05.47-.11.93-.17,1.39s-.12,1-.19,1.43c-.12.87-.24,1.73-.38,2.59-.09.61-.19,1.23-.3,1.84l-.05.33,0,.24-.09.49c-.05.3-.1.6-.16.9l-.12.69-.06.29c-.09.52-.2,1-.3,1.58,0,0,0,0,0,.06-.12.62-.25,1.25-.39,1.87l-.06.31,0,.11-.08.41c-.34,1.56-.7,3.11-1.08,4.66-.09.37-.18.75-.28,1.12-.13.55-.28,1.09-.42,1.64l-.22.84c-.15.58-.31,1.15-.47,1.73l-.6,2.1c-.08.26-.15.52-.23.78q-.9,3.09-1.93,6.13a1.39,1.39,0,0,1-.06.19c-.11.35-.24.71-.36,1.06-.19.55-.38,1.1-.58,1.66-.06.17-.12.35-.18.51l-.45,1.21c-.28.77-.57,1.53-.87,2.29-.19.51-.39,1-.59,1.51-.1.25-.2.5-.31.75-.32.78-.65,1.55-1,2.33-.2.47-.41.93-.62,1.4-.33.74-.67,1.48-1,2.22-.12.23-.23.48-.35.73s-.15.31-.22.46c-.17.34-.33.67-.5,1-.7,1.41-1.4,2.83-2.11,4.24-.18.37-.37.73-.56,1.09l-.52,1-.73,1.4-.19.35c-.06.11-.12.23-.19.34l-.37.7h0l-.37.65-.06.12c-.12.19-.23.39-.34.59l-.23.38a.34.34,0,0,1-.06.12h0l-.11.2c-.57,1-1.16,2-1.75,2.93l-.59,1h0l-.6,1-.39.6c-.18.29-.37.59-.57.88-1.12,1.73-2.29,3.44-3.53,5.09-.12.18-.25.35-.38.53l-.1.12-.2.26c-.28.38-.57.75-.87,1.12-.15.19-.3.39-.46.58s-.53.65-.8,1c-2.7,3.25-5.38,6.52-8.25,9.62l-.15.16-1,1.1c-.38.41-.78.81-1.17,1.21l-.94.95-.53.52-.54.54-.88.83c-.25.25-.51.49-.78.73l-1,.9c-.33.31-.67.61-1,.91l-1.05.91-.62.52-.1.08-.88.72-.94.75c-.25.21-.5.4-.76.6-.5.38-1,.77-1.53,1.15l-.6.44c-.54.39-1.08.78-1.63,1.16-1.55,1.11-3.11,2.19-4.69,3.26l-2,1.32-.14.09-1.19.77-1.29.83-1.4.88-.67.42-1.14.69-1.19.71c-1,.57-2,1.12-3,1.64l-.9.46c-1,.51-2,1-3.06,1.46-.46.22-.93.42-1.4.63l-1.41.62L160,197l-.93.38-.51.2c-3.23,1.29-6.49,2.49-9.74,3.72L147,202a1.8,1.8,0,0,1-.27.07.88.88,0,0,1-.31,0,.37.37,0,0,1-.18-.05h0s0,0,0,0c-.17-.11-.23-.34-.21-.69a.33.33,0,0,1,0-.1,1.59,1.59,0,0,1,.15-.47.71.71,0,0,1,.08-.18l.16-.29.11-.15.08-.12,0,0,.07-.08.07-.09.08-.08c0-.05.1-.1.15-.15h0l.16-.14.16-.13.13-.09.22-.13.16-.08.08,0,.09,0,2-.57,1.32-.39.71-.22.51-.15.5-.16.76-.25.25-.08.38-.14.62-.21.32-.12.67-.25c.54-.2,1.08-.42,1.61-.63.22-.09.44-.17.65-.27l.64-.26.31-.12.95-.41.78-.34.32-.14c.14-.06.29-.12.42-.19l.47-.21.75-.34h0l.27-.12h0s0,0,0,0l.08,0,.49-.24h0l1.22-.59.6-.29.27-.13.86-.44,1.09-.56c1.11-.58,2.2-1.17,3.28-1.79.27-.15.54-.3.8-.46l.1-.06a1.49,1.49,0,0,0,.24-.14h0l.14-.08.19-.12c.36-.2.71-.41,1.06-.62l.18-.11.89-.55.89-.56.49-.3.17-.11.14-.08,0,0,.05,0,.35-.23c.52-.33,1-.67,1.54-1l.75-.51c.15-.09.29-.19.43-.29s.37-.25.56-.39l1-.69c.27-.18.53-.37.79-.56l.78-.57.31-.23c.8-.59,1.59-1.2,2.38-1.81l.19-.16.6-.47.75-.6c.7-.57,1.4-1.14,2.09-1.73.23-.21.48-.41.72-.62l.26-.22.31-.27,0,0c.21-.17.41-.36.61-.54l.17-.14c.61-.53,1.21-1.09,1.82-1.64l.66-.62.66-.62c.29-.27.58-.54.86-.82l.86-.83,2-2,1.19-1.24,1.18-1.26c.55-.59,1.09-1.18,1.62-1.78l.95-1.08c.76-.87,1.51-1.74,2.24-2.63l.34-.42c.24-.28.48-.58.71-.87l.8-1,.79-1,.15-.19.06-.08.24-.31.09-.13c.07-.09.15-.18.22-.28l.7-.92c.29-.38.56-.76.85-1.15.75-1,1.49-2.07,2.23-3.12l.72-1.05c.25-.38.51-.75.75-1.14s.5-.76.74-1.14c.1-.14.19-.29.28-.44s.3-.47.45-.7c.24-.39.48-.78.71-1.17s.64-1.06,1-1.59l.31-.53.13-.22,1.35-2.36q.92-1.61,1.8-3.24h0c.31-.56.61-1.13.92-1.7.13-.25.27-.51.4-.78q1.26-2.38,2.42-4.83c1.87-4,3.69-8,5.19-12.07.25-.67.49-1.35.73-2s.55-1.55.81-2.33c.09-.24.17-.47.25-.71s.21-.61.31-.92c.46-1.39.92-2.78,1.36-4.18.22-.68.43-1.36.64-2s.43-1.36.63-2l.63-2c.15-.52.31-1,.45-1.57.06-.19.12-.38.17-.58s.19-.66.28-1,.25-.92.37-1.38c.39-1.47.76-3,1.11-4.44,0-.17.08-.34.11-.51s.07-.25.09-.37c.08-.31.14-.61.21-.91s.17-.74.24-1.11c.05-.21.1-.41.14-.62a.5.5,0,0,0,0-.12c.12-.55.24-1.09.35-1.63s.21-1.07.32-1.6l.3-1.6c.12-.61.24-1.23.35-1.85q.56-3.07,1-6.19c0-.25.08-.5.12-.75l.12-.76.1-.65s0-.07,0-.1c0-.23.07-.46.11-.68v-.08h.12l.13,0C241.19,73.39,241.21,73.68,241.19,74Z"/><circle class="cls-1" cx="144.83" cy="23.73" r="8.9"/></svg>